<svg width="80" height="43" fill="none" xmlns="http://www.w3.org/2000/svg"><path d="M12.4 12.8a4 4 0 00-4.1 4 4 4 0 004.1 4 4 4 0 004.1-4 4 4 0 00-4.1-4zM42.6 11.6c0-3.1-1.2-6-3.4-8.2a12 12 0 00-16.8 0 11.4 11.4 0 00-3.5 8.2v16.8S42.6 26 42.6 11.6zM0 34a8 8 0 002.4 5.7 8.4 8.4 0 0011.7 0 8 8 0 002.4-5.7V22.2S0 24 0 34zm8.2 2c-.4 0-.8 0-1.2-.3-.3-.2-.6-.5-.7-1a2 2 0 01.4-2.2 2.2 2.2 0 012.4-.5l1 .8a2 2 0 01-.3 2.7 2.2 2.2 0 01-1.6.6zM25 34.8h-1.6v1.7h-.9v-4.2h2.8v.7h-1.9v1h1.7v.8zm4.3-.3c0 .4 0 .8-.2 1a1.7 1.7 0 01-1.6 1c-.4 0-.7 0-1-.2l-.6-.7-.2-1v-.3c0-.4 0-.8.2-1.1a1.7 1.7 0 011.6-1c.4 0 .7 0 1 .3l.6.7.2 1.1v.2zm-.9-.2c0-.5 0-.8-.2-1a.8.8 0 00-.7-.4c-.3 0-.5.1-.7.4l-.2 1v.2c0 .4 0 .8.2 1 .2.2.4.4.7.4.3 0 .5-.2.7-.4l.2-1v-.2zm3.8 1.1c0-.2 0-.3-.2-.4l-.6-.3-.8-.2c-.5-.3-.7-.7-.7-1.1 0-.2 0-.4.2-.6.1-.2.3-.3.6-.4l.8-.2c.3 0 .6 0 .8.2.2 0 .4.2.5.4.2.2.2.5.2.7h-.8c0-.2 0-.3-.2-.4a.8.8 0 00-.5-.2l-.5.1c-.2.1-.2.2-.2.4 0 .1 0 .3.2.3l.6.3c.5.2.9.3 1.1.6.2.2.3.5.3.8 0 .4 0 .7-.4.9-.3.2-.6.3-1.1.3-.3 0-.6 0-.9-.2-.3-.1-.5-.3-.6-.5-.2-.2-.2-.4-.2-.7h.9c0 .5.2.7.8.7l.5-.1.2-.4zm4.7-2.4h-1.4v3.5h-.8V33h-1.3v-.7h3.5v.7zm3 1.7h-1.7v1.1h2v.7h-2.8v-4.2h2.8v.7h-2v1H40v.7zm2.4.3h-.7v1.5h-.9v-4.2h1.6c.5 0 1 0 1.2.3.3.2.4.5.4 1 0 .2 0 .5-.2.7-.1.2-.3.3-.6.4l1 1.8h-1l-.8-1.5zm-.7-.7h.7l.5-.2c.2-.1.2-.3.2-.5s0-.3-.2-.5l-.5-.1h-.7v1.3zm5.3.7v1.5h-.8v-4.2h1.6l.9.1.5.5c.2.3.2.5.2.8 0 .4-.1.7-.4 1-.3.2-.7.3-1.2.3H47zm0-.7h.8c.3 0 .4 0 .6-.2l.1-.4-.1-.5a.7.7 0 00-.6-.2H47v1.3zm5.6.4h-1.7v1.1h2v.7h-2.9v-4.2h2.9v.7h-2v1h1.7v.7zm4-1.7h-1.2v3.5h-1V33h-1.2v-.7h3.5v.7zm3.1 1.7H58v1.1h2v.7h-3v-4.2h3v.7h-2v1h1.6v.7zm2.4.3h-.7v1.5h-.8v-4.2H62c.5 0 1 0 1.2.3.3.2.4.5.4 1 0 .2 0 .5-.2.7l-.5.4.9 1.8h-1L62 35zm-.7-.7h.7l.6-.2.1-.5-.1-.5-.6-.1h-.7v1.3zm5.2 1.1c0-.2 0-.3-.2-.4l-.6-.3-.7-.2c-.5-.3-.8-.7-.8-1.1l.2-.6.6-.4.8-.2c.3 0 .6 0 .8.2.3 0 .5.2.6.4l.2.7h-.9c0-.2 0-.3-.2-.4a.8.8 0 00-.5-.2l-.5.1-.2.4c0 .1 0 .3.2.3l.6.3c.5.2 1 .3 1.1.6.3.2.4.5.4.8 0 .4-.2.7-.4.9-.3.2-.7.3-1.2.3-.3 0-.6 0-.9-.2l-.6-.5-.2-.7h.9c0 .5.3.7.8.7l.5-.1.2-.4z" fill="#AFB1B8"/></svg>